<mxfile host="app.diagrams.net" modified="2023-05-26T11:23:16.477Z" agent="Mozilla/5.0 (Windows NT 10.0; Win64; x64) AppleWebKit/537.36 (KHTML, like Gecko) Chrome/112.0.5615.138 Safari/537.36 Avast/112.0.21002.138" version="21.3.4" etag="YiGy39-AO7bOUfZq9QLU" type="github">
  <diagram name="Страница 1" id="eaN71nCvbxQlCG1jnttF">
    <mxGraphModel>
      <root>
        <mxCell id="0" />
        <mxCell id="1" parent="0" />
      </root>
    </mxGraphModel>
  </diagram>
</mxfile>
